<?xml version="1.0" encoding="UTF-8"?>
<svg version="1.1" viewBox="0 0 2048 331" width="1280" height="1280" xmlns="http://www.w3.org/2000/svg">
<path transform="translate(0)" d="m0 0h2048v331h-2048z" fill="#FDFDFD"/>
<path transform="translate(172,7)" d="m0 0h19l27 3 15 4 15 5 16 8 14 8 13 11 8 7 11 12 10 13 12 22 10 30 4 29v12l-3 24-7 25-10 21-9 15-11 13-7 8-12 11-12 9-18 10-11 5-26 8-22 3h-31l-23-3-20-6-13-5-19-10-16-12-13-12-9-10-11-15-11-20-6-17-5-18-3-27 2-26 3-16 8-24 8-15 6-10 11-14 12-13 11-9 10-8 18-10 11-5 27-8z" fill="#84F0B6"/>
<path transform="translate(136,187)" d="m0 0 1 2-2 5 4 5 10 7 13 5 6 1h22l13-2 12-5 6-7 2-4 1-6 5 2 22 12 18 6 11 5 19 5 11 9 6 7 2 5-7 12-11 13-9 10-11 9-12 9-21 11-21 7-15 3-19 2h-20l-21-2-19-5-15-5-22-12-9-7-11-9-5-4-7-8-13-17-3-5 1-6 6-10 5-7 12-7 14-5 13-2 17-6 7-2 11-7z" fill="#010101"/>
<path transform="translate(166,17)" d="m0 0h32l19 2 25 7 21 10 15 10 15 13 7 7 7 9 9 13 11 23 6 20 3 19 1 11v10l-3 24-6 21-7 16-4 5-7-9-11-9-21-6-17-7-12-4-22-12-3-2v6l-5 8-6 5-10 4-13 2h-22l-12-3-12-6-8-7-2-5 3-5 8-4 5 5 7 8 8 6 6 2h10l10-5 3-1 2-4 5-6 4-4 5-8 7-16 3-14 2-41 3-5 1-5 2-36-3-10-5-5-9-6-5-3-1-4-7-3-8-5-3-1-20-1-7-2v-1z" fill="#84F0B5"/>
<path transform="translate(163,19)" d="m0 0 4 1 20 1 6 3 8 5 5 2 2 5 11 6 6 5 3 8 1 7-2 33-2 6-2 4-2 41-4 17-8 16-6 9h-2l-2 4-5 6-6 4-7 3h-10l-7-3-10-8-7-8v-2h-2l-3-7-6-10-6-18-4-25-2-8v-9l-1-5-1-7-1-31 2-7 1-5 2-4 1-5 5-9 2-2h7l2-5 10-4 4-3z" fill="#272829"/>
<path transform="translate(567,71)" d="m0 0h8l6 5 1 2 1 56 7-6 5-4 12-6 5-1h17l14 4 9 6 8 7 7 10 5 11 3 12v23l-4 16-7 13-11 12-12 7-10 3h-20l-10-3-13-8-6-5v9l-4 5-5 2-8-1-5-6v-157l5-5z" fill="#272829"/>
<path transform="translate(1809,117)" d="m0 0h19l13 4 11 7 6 5v-9l4-5 2-1h9l6 5 1 3v104l-2 5-5 4h-8l-6-4-2-10-7 6-9 6-11 4h-21l-12-4-11-7-8-8-8-13-5-16-1-8v-12l3-16 5-12 7-10 9-9 14-7z" fill="#272829"/>
<path transform="translate(983,117)" d="m0 0h19l12 4 10 6 6 5 2-9 4-4 2-1h9l5 5 1 2v107l-3 5-4 2h-8l-5-3-2-4-2-7-5 5-8 6-13 5h-20l-13-4-11-7-7-7-7-11-5-12-2-9v-24l4-15 7-13 9-10 10-7 10-4z" fill="#272829"/>
<path transform="translate(1574,117)" d="m0 0h19l13 4 11 7 6 5-1-7 3-5 4-3h9l5 5 1 2 1 21v19l-1 67-3 5-4 2h-8l-6-5-2-9-10 9-13 6-4 1h-20l-10-3-11-6-8-7-7-10-5-10-4-16v-19l3-14 8-16 9-11 11-7 10-4z" fill="#272829"/>
<path transform="translate(467,79)" d="m0 0h8l6 5 15 36 34 82 9 22 1 7-3 6-5 3h-6l-5-3-6-12-10-24h-70l-14 33-4 5-2 1h-7l-5-3-2-4 1-8 31-75 17-41 10-24 4-5z" fill="#272829"/>
<path transform="translate(1307,78)" d="m0 0h28l16 4 12 6 4 6-1 8-4 5-2 1h-8l-14-5-11-2h-12l-14 3-14 7-11 10-8 13-3 9-2 13 1 15 4 13 6 11 7 8 9 7 8 4 9 3 8 1h12l16-3 8-2-1-34-28-1-6-3-3-5v-7l3-5 5-3h47l6 5 1 2v59l-3 5-10 6-15 6-13 3h-27l-16-4-14-7-11-8-10-10-9-14-6-14-3-14v-20l3-15 7-16 9-13 10-10 15-10 16-6z" fill="#272829"/>
<path transform="translate(172,7)" d="m0 0h19l27 3 15 4 15 5 16 8 14 8 13 11 8 7 11 12 10 13 12 22 10 30 4 29v12l-3 24-7 25-10 21-9 15-11 13-7 8-12 11-12 9-18 10-11 5-26 8-22 3h-31l-23-3-20-6-13-5-19-10-16-12-13-12-9-10-11-15-11-20-6-17-5-18-3-27 2-26 3-16 8-24 8-15 6-10 11-14 12-13 11-9 10-8 18-10 11-5 27-8zm-6 10-19 2-26 8-16 8-13 7-16 13-10 9-9 11-9 13-8 15-9 27-3 18v32l3 19 6 20 8 16 4 9 8 11 8 10 5 6 22 18 21 12 12 5 21 6 17 2 9 1h20l26-3 24-7 16-8 13-7 14-11 12-11 9-11 9-12 5-11 7-15 6-19 3-19 1-10v-10l-3-25-5-19-5-13-11-21-16-20-8-8-11-9-15-10-21-10-25-7-19-2z" fill="#0097FF"/>
<path transform="translate(1410,71)" d="m0 0h9l5 5 1 2 1 58 5-5 9-7 13-6 13-1 12 2 10 5 7 7 5 11 3 15v74l-3 5-4 3h-8l-6-4-1-2-1-68-2-12-3-6-1-3-4-2-10-3-13 1-9 4-6 5-5 10-1 6-1 67-5 6-2 1h-8l-4-2-3-6v-153l5-6z" fill="#272829"/>
<path transform="translate(789,119)" d="m0 0 6 1 6 5 1 3v70l-3 14-5 10-9 10-14 7-9 2h-21l-12-3-8-4-10-9-5-9-3-7-2-12v-69l4-6 3-2h9l6 5 1 3 1 70 3 10 4 6 10 5 12 1 12-3 7-5 4-8 1-5 1-68 2-7 5-4z" fill="#272829"/>
<path transform="translate(837,120)" d="m0 0h76l5 4 2 5-1 7-6 9-16 21-14 19-16 21-8 11 53 1 6 3 3 9-3 6-5 3h-81l-5-5-1-2v-8l6-9 10-13 12-16 16-21 14-19 3-5h-51l-5-3-2-4v-8l5-5z" fill="#272829"/>
<path transform="translate(1722,71)" d="m0 0h17l8 3 5 6v7l-4 5-2 1-20-1-6 3-3 3-1 3-1 20h23l7 3 2 3v10l-6 5-25 1-1 85-2 6-4 4-2 1h-7l-5-3-3-5-1-88-17-1-5-4-1-2v-8l5-6 4-1h15v-21l4-12 9-10 10-5z" fill="#272829"/>
<path transform="translate(988,138)" d="m0 0h16l9 4 8 6 6 9 4 11 1 5v12l-3 12-4 8-8 9-12 6-13 1-9-2-10-6-7-8-5-11-2-10v-10l3-13 4-8 6-7 9-6z" fill="#FCFCFC"/>
<path transform="translate(1814,138)" d="m0 0h16l10 4 9 7 6 10 3 10 1 10-2 14-5 12-7 8-10 6-8 2h-8l-9-2-9-5-7-7-5-10-3-11v-14l2-9 5-10 8-9 9-5z" fill="#FCFCFC"/>
<path transform="translate(609,138)" d="m0 0h17l9 4 8 6 7 11 3 9 1 7v8l-3 13-7 13-8 7-10 4-4 1h-8l-12-3-8-6-6-7-4-8-2-6-1-7v-12l3-11 6-11 9-8z" fill="#FCFCFC"/>
<path transform="translate(1579,138)" d="m0 0h16l10 4 10 9 6 12 2 7v17l-4 13-6 10-11 8-11 3-13-1-9-4-8-7-4-5-5-11-1-5v-18l3-11 7-10 8-7z" fill="#FCFCFC"/>
<path transform="translate(163,19)" d="m0 0 4 1 20 1 6 3 8 5 5 2 2 5 11 6 6 5 3 8 1 7-2 33h-2v2h-5l-3-12-5-10-4-10-4-4-16-3h-9l-6-2-5-1-19 2-5 3-4 3h-2l-3 10-4 13-3 12-4 2-1-7v-25h-2l1-9 2-3v-6l3-3 1-7 6-8h7l2-5 10-4 4-3z" fill="#020202"/>
<path transform="translate(1137,117)" d="m0 0h14l5 3 4 5v8l-4 5-4 2-7-1-4-1h-11l-8 4-7 8-4 8-2 7-1 65-4 7-4 2h-7l-5-3-2-3-1-5v-99l3-6 4-3 7-1 5 3 4 5 1 11 6-8 8-7 10-5z" fill="#272829"/>
<path transform="translate(1964,117)" d="m0 0h14l6 4 3 5-1 9-5 4-5 1-8-2h-11l-8 4-8 9-4 8-1 5-1 65-3 7-5 3h-7l-5-3-3-6v-102l3-5 4-3 6-1 6 3 4 6v10l8-10 10-7z" fill="#272829"/>
<path transform="translate(207,95)" d="m0 0 6 1 3 4 2-1 2 16v15l-3 14-2 5-3-1-5 5-3 5-3 3-1-9-2-4-8-2h-5l-6-5-7 2-6-3-2 4-12 4-4 4-1 5h-3l-4-7-5-2-2-2-3-12-2-16 2-2 2-12 2-4 3 1v2l9-1v2l-7 3-1 6 3 1 2 2h8l8-2 5-2-1 7-5 5 2 4 2-6 5-9 4-10 3 3 6 11-3-16 1-2h3l-1 6 2 2v3l11 2v-2h4v-5h4l2 1 3-1-2-2-8-2 1-2 5-2h4z" fill="#C9C9C8"/>
<path transform="translate(2016,118)" d="m0 0 6 1 5 5 2 7-1 101-3 5-4 2h-7l-5-3-3-5v-105l5-6z" fill="#272829"/>
<path transform="translate(156,58)" d="m0 0h8l7 2 4 2 21 2 8 3 3 3 8 14 2 4 1 8 4 2h-5l-6-4-6-2h-8l-17 2-9 3-23-3h-11l-5 3h-2l1-7 6-18 7-8 3-4z" fill="#CCCCCB"/>
<path transform="translate(168,54)" d="m0 0 5 1 6 2h9l16 3 5 5 5 12 5 11 1 8h-2l-3-10-7-13-2-5-10-3-22-2-4-3-6-1h-8l-9 2-7 8-4 8-6 20 7-4h11l23 3 9-3 17-2h8l10 4 4 2h6l1-2v5l-4 3-1 10h-2l-2-13-1 8h-1l-2-12-6-1-1 3-6 1-3 1 8 3 2 2-5 2-4-2-1 5h-4v2l-9-1-2-1-3-5 2-6h-3l1 8 2 11-4-4-5-10-6 13-6 11-2-1 1-2-3-1 5-3 3-9-7 4-12 1-4-1-4-5 2-5 3-2h4v-2l-2 1h-7l-3-3-3 16-2 2 2 16 2 8 1 14h-2l-3-14-4-22-1-10-2-15v-27h1l1 32 3-2 6-22 5-13 8-6 10-2z" fill="#262728"/>
<path transform="translate(469,118)" d="m0 0 3 3 23 54v3h-51l10-25 14-34z" fill="#FAFAF9"/>
<path transform="translate(211,173)" d="m0 0h2l2 7 7 6 2 1v7l-5 8-6 5-10 4-13 2h-22l-12-3-12-6-8-7-2-5 3-5 8-4 5 5 7 8 8 6 6 2h10l10-5 3-1 2-4 5-6 4-4 5-8z" fill="#CCCCCB"/>
<path transform="translate(138,166)" d="m0 0 4 2 1-2 3 1 2 5 3 1 4 6 3 2 6 1 3 3h13l5-2 2-3 5-1 4-1 3-4 11-1v5l-7 10h-2l-2 4-5 6-6 4-7 3h-10l-7-3-10-8-7-8v-2h-2l-3-7-4-6z" fill="#020202"/>
<path transform="translate(177,156)" d="m0 0h13l5 2 2 3v6l-4 1-2 6-5 2h-2l-2 4-7 1-9-1-1-3-5-1-5-4-1-2v-9l2-3 16-1z" fill="#CCCCCB"/>
<path transform="translate(197,91)" d="m0 0h8l10 4 4 2h6l1-2v5l-4 3-1 10h-2l-2-13-1 8h-1l-2-12-6-1-1 3-6 1-3 1 8 3 2 2-5 2-4-2-1 5h-4v2l-9-1-2-1-3-5 2-6h-3l1 8 2 11-4-4-3-7-1-7-5 2-4-3-4-2 16-2 4-2z" fill="#28292A"/>
<path transform="translate(2013,79)" d="m0 0h10l6 4 1 3v10l-3 5-9 3-10-2-3-4-1-9 2-6 4-3z" fill="#272829"/>
<path transform="translate(217,105)" d="m0 0 2 3v20l-2 8-6 1-1 2h-7l-5-2-3-3 1-5 6-2 1-3 7-3 5-5z" fill="#FEFEFE"/>
<path transform="translate(145,180)" d="m0 0 5 5 8 7 12 4h8l11-2 8-5 8-7v3l-2 3h-2l-2 4-5 6-6 4-7 3h-10l-7-3-10-8-7-8v-2h-2z" fill="#272829"/>
<path transform="translate(213,40)" d="m0 0 6 2 6 5 3 8 1 7-2 33h-1l-1-19 1-13-5-4-3-8v-3l-5-1-1-4z" fill="#262728"/>
<path transform="translate(164,163)" d="m0 0h16l3 4v2l-6 2-13-1z" fill="#272829"/>
<path transform="translate(172,121)" d="m0 0h5l2 7h2v3l-7 1-5-2v-2l-2-1h2l1-5z" fill="#FCFCFC"/>
<path transform="translate(225,100)" d="m0 0 3 4h-3l3 6-5 17h-1v-22z" fill="#D2D2D1"/>
<path transform="translate(225,95)" d="m0 0h1v5l-4 3-1 10h-2l-1-15 7-1z" fill="#272829"/>
<path transform="translate(177,96)" d="m0 0 2 1-3 1 1 10-2-1-2-7-5 2-4-3-4-2h14z" fill="#010101"/>
<path transform="translate(122,68)" d="m0 0h1l1 32 4 1-1 2-4-1-1-7z" fill="#3C3D3E"/>
<path transform="translate(227,62)" d="m0 0h1v17l-1 16h-1l-1-19z" fill="#272829"/>
<path transform="translate(251,203)" d="m0 0 10 2 8 3-3 1-7-1-5-1v-2l-3-1z" fill="#252626"/>
<path transform="translate(174,107)" d="m0 0h5l2 11-4-4z" fill="#272829"/>
<path transform="translate(188,94)" d="m0 0h9v3h-10z" fill="#010101"/>
<path transform="translate(173,165)" d="m0 0h5v4l-4 1-3-3z" fill="#010101"/>
<path transform="translate(219,99)" d="m0 0h5l-2 4-1 10h-1z" fill="#010101"/>
</svg>
